<svg id="Group_50" data-name="Group 50" xmlns="http://www.w3.org/2000/svg" width="24" height="24" viewBox="0 0 24 24">
  <path id="Path_33" data-name="Path 33" d="M0,0H24V24H0Z" fill="none"/>
  <path id="Path_34" data-name="Path 34" d="M20.083,15.2l1.2.721a.5.5,0,0,1,0,.858l-8.77,5.262a1,1,0,0,1-1.03,0l-8.77-5.262a.5.5,0,0,1,0-.858l1.2-.721L12,20.05l8.083-4.85Zm0-4.7,1.2.721a.5.5,0,0,1,0,.858L12,17.65,2.715,12.079a.5.5,0,0,1,0-.858l1.2-.721L12,15.35ZM12.514,1.309l8.771,5.262a.5.5,0,0,1,0,.858L12,13,2.715,7.429a.5.5,0,0,1,0-.858l8.77-5.262a1,1,0,0,1,1.03,0ZM12,3.332,5.887,7,12,10.668,18.113,7Z" fill="#fff"/>
</svg>
