<svg id="Group_49" data-name="Group 49" xmlns="http://www.w3.org/2000/svg" width="24" height="24" viewBox="0 0 24 24">
  <path id="Path_31" data-name="Path 31" d="M0,0H24V24H0Z" fill="none"/>
  <path id="Path_32" data-name="Path 32" d="M2.88,18.054a35.9,35.9,0,0,1,8.531-16.32.8.8,0,0,1,1.178,0q.249.27.413.455A35.9,35.9,0,0,1,21.12,18.054a43.989,43.989,0,0,1-6.584.874l-2.089,4.178a.5.5,0,0,1-.894,0L9.464,18.928a44.018,44.018,0,0,1-6.584-.874Zm6.7-1.123L10.735,17,12,19.527,13.265,17l1.157-.066a42.137,42.137,0,0,0,4.227-.454A33.913,33.913,0,0,0,12,4.09,33.913,33.913,0,0,0,5.351,16.477,41.842,41.842,0,0,0,9.578,16.931ZM12,15a3,3,0,1,1,3-3A3,3,0,0,1,12,15Zm0-2a1,1,0,1,0-1-1A1,1,0,0,0,12,13Z" fill="#fff"/>
</svg>
